<svg width="250" height="250" viewBox="0 0 250 250" fill="none" xmlns="http://www.w3.org/2000/svg">
<path d="M0 30C0 13.4315 13.4315 0 30 0H220C236.569 0 250 13.4315 250 30V220C250 236.569 236.569 250 220 250H30C13.4315 250 0 236.569 0 220V30Z" fill="#F19AC8"/>
<path d="M133.31 192V88.45H132.17L114.31 192H94.55L76.69 88.45H75.55V192H57.12V61.28H86.95L104.24 161.98H105.57L122.86 61.28H152.12V192H133.31Z" fill="#141313"/>
<path d="M175.624 153.81C172.077 112.897 170.304 87.6267 170.304 78V61.28H192.534V78C192.534 87.6267 190.76 112.897 187.214 153.81H175.624ZM171.254 192V171.29H191.584V192H171.254Z" fill="#141313"/>
</svg>
